<svg xmlns="http://www.w3.org/2000/svg" xmlns:xlink="http://www.w3.org/1999/xlink" version="1.1" x="0px" y="0px" viewBox="0 0 100 125" style="enable-background:new 0 0 100 100;" xml:space="preserve"><g><path d="M44.4,17.2c-5.1,5.1-7.9,11.9-7.9,19.2c0,0,0,0.1,0,0.1c0,0-0.1,0-0.1,0c-14.9,0-27.1,12.2-27.1,27.1   c0,14.9,12.2,27.1,27.1,27.1s27.1-12.2,27.1-27.1c0,0,0-0.1,0-0.1c0,0,0.1,0,0.1,0c7.2,0,14-2.8,19.2-7.9   c10.6-10.6,10.6-27.8,0-38.3C72.2,6.7,55,6.7,44.4,17.2z M61.5,63.6c0,13.8-11.3,25.1-25.1,25.1S11.3,77.4,11.3,63.6   c0-13.8,11.3-25.1,25.1-25.1c0.1,0,0.1,0,0.2,0c0.5,6.5,3.2,12.5,7.9,17.1s10.6,7.4,17.1,7.9C61.5,63.5,61.5,63.5,61.5,63.6z    M81.4,54.2c-4.7,4.7-11,7.4-17.8,7.4c-6.7,0-13-2.6-17.8-7.4s-7.4-11-7.4-17.8c0-6.7,2.6-13,7.4-17.8c4.9-4.9,11.3-7.3,17.8-7.3   c6.4,0,12.9,2.4,17.8,7.3C91.1,28.4,91.1,44.4,81.4,54.2z"/><path d="M87,65c-0.5,0-1,0.4-1,1c-0.1,7.9-6.4,14.6-14.2,15.5l3.6-6.3c0.3-0.5,0.1-1.1-0.4-1.4c-0.5-0.3-1.1-0.1-1.4,0.4l-4.5,7.9   C69,82.4,69,82.7,69,82.9c0.1,0.3,0.2,0.5,0.5,0.6l7.9,4.4c0.2,0.1,0.3,0.1,0.5,0.1c0.4,0,0.7-0.2,0.9-0.5c0.3-0.5,0.1-1.1-0.4-1.4   l-5.2-2.9C81.4,81.8,87.8,74.6,88,66C88,65.5,87.6,65,87,65z"/><path d="M12,34c0,0.6,0.4,1,1,1c0,0,0,0,0,0c0.5,0,1-0.4,1-1c0.1-7.9,6.4-14.6,14.2-15.5l-3.6,6.3c-0.3,0.5-0.1,1.1,0.4,1.4   c0.2,0.1,0.3,0.1,0.5,0.1c0.3,0,0.7-0.2,0.9-0.5l4.5-7.9c0.1-0.2,0.2-0.5,0.1-0.8c-0.1-0.3-0.2-0.5-0.5-0.6l-7.9-4.4   c-0.5-0.3-1.1-0.1-1.4,0.4c-0.3,0.5-0.1,1.1,0.4,1.4l5.2,2.9C18.6,18.2,12.1,25.4,12,34z"/><path d="M42.6,73.9C42.6,73.9,42.6,73.9,42.6,73.9H30.7c1-1.8,1.5-3.4,1.5-5.1c0-1-0.1-2.1-0.2-3.3h6.1c0.4,0,0.6-0.3,0.6-0.6   s-0.3-0.6-0.6-0.6h-6.2c-0.1-0.8-0.2-1.7-0.2-2.6c-0.2-3.5,2.2-5.4,4.8-5.7c1.3-0.1,2.6,0.2,3.6,0.9c1,0.7,1.8,1.9,1.9,3.7   c0,0.4,0.3,0.6,0.7,0.6c0.4,0,0.6-0.3,0.6-0.7c-0.2-2.1-1.2-3.6-2.5-4.6c-1.1-0.8-2.5-1.2-3.9-1.2v0c-0.2,0-0.4,0-0.6,0   c-3.2,0.3-6.2,2.9-6,7.1c0.1,0.9,0.1,1.8,0.2,2.6h-2.1c-0.4,0-0.6,0.3-0.6,0.6s0.3,0.6,0.6,0.6h2.3c0.1,1.2,0.2,2.3,0.2,3.2   c0,1.8-0.4,3.4-1.8,5.4c-0.2,0.3-0.1,0.7,0.2,0.9c0.1,0.1,0.2,0.1,0.4,0.1h12.9c0.4,0,0.6-0.3,0.7-0.6C43.3,74.2,43,73.9,42.6,73.9   z"/><path d="M64.4,34.5v-6.3c1.7,0.2,3.3,0.8,4.5,2.1l1.1-1.1c-1.3-1.3-3.2-2.2-5.6-2.3v-2.3h-1.3v2.3c-3.3,0.1-5.8,1.8-5.8,4.5   c0,3,2.9,3.8,5.8,4.5v7c-2.4-0.2-4.2-1.3-5.4-2.4l-1.1,1.1c1.4,1.5,3.5,2.5,6.4,2.6v2.2h1.3v-2.2c4.5-0.3,6-2.7,6-4.7   C70.4,36.2,67.3,35.2,64.4,34.5z M63.1,34.2c-2.2-0.6-4.1-1.2-4.1-3c0-1.7,1.7-3,4.1-3.1V34.2z M64.4,42.8v-6.7   c2.3,0.6,4.3,1.4,4.3,3.4C68.7,40.9,67.7,42.6,64.4,42.8z"/></g><text x="0" y="115" fill="#000000" font-size="5px" font-weight="bold" font-family="'Helvetica Neue', Helvetica, Arial-Unicode, Arial, Sans-serif">Created by Shastry</text><text x="0" y="120" fill="#000000" font-size="5px" font-weight="bold" font-family="'Helvetica Neue', Helvetica, Arial-Unicode, Arial, Sans-serif">from the Noun Project</text></svg>