<svg xmlns="http://www.w3.org/2000/svg" xmlns:xlink="http://www.w3.org/1999/xlink" version="1.1" x="0px" y="0px" viewBox="0 0 100 125" enable-background="new 0 0 100 100" xml:space="preserve"><g><path d="M67.469,62.102c-3.905,2.316-10.951,3.511-17.943,3.511c-6.993,0-14.039-1.195-17.944-3.511v3.581   c0,1.585,6.334,4.668,17.944,4.668s17.943-3.084,17.943-4.668V62.102z"/><path d="M67.469,81.366v-3.581c-3.905,2.316-10.951,3.511-17.943,3.511c-6.993,0-14.039-1.195-17.944-3.511v1.752v1.829   c0,1.584,6.334,4.668,17.944,4.668S67.469,82.95,67.469,81.366z"/><path d="M31.581,69.943v3.581c0,1.585,6.334,4.668,17.944,4.668s17.943-3.084,17.943-4.668v-3.581   c-3.905,2.316-10.951,3.511-17.943,3.511C42.532,73.454,35.487,72.259,31.581,69.943z"/><path d="M67.469,54.261c-3.905,2.316-10.951,3.511-17.943,3.511c-6.993,0-14.039-1.195-17.944-3.511v3.581   c0,1.584,6.334,4.668,17.944,4.668s17.943-3.084,17.943-4.668V54.261z"/><path d="M77.057,40.27c-2.223,0-4.398,0.124-6.485,0.368v8.593c0.065,0.008,0.129,0.017,0.194,0.024   c0.907,0.103,1.832,0.182,2.769,0.239c0.186,0.011,0.374,0.02,0.562,0.029c0.976,0.05,1.961,0.083,2.96,0.083   c11.61,0,17.943-3.084,17.943-4.668C95,43.354,88.667,40.27,77.057,40.27z"/><path d="M67.469,38.578c-3.905,2.316-10.951,3.511-17.943,3.511c-6.993,0-14.039-1.195-17.944-3.511v1.752v1.829   c0,1.584,6.334,4.668,17.944,4.668s17.943-3.084,17.943-4.668V38.578z"/><path d="M70.572,60.204v4.715c2.072,0.24,4.242,0.368,6.48,0.368C88.665,65.287,95,62.205,95,60.621v-3.582   c-3.906,2.315-10.953,3.51-17.948,3.51C74.824,60.549,72.654,60.431,70.572,60.204z"/><path d="M95,49.204c-0.023,0.013-0.049,0.025-0.072,0.038c-0.282,0.165-0.58,0.323-0.893,0.477   c-0.051,0.025-0.103,0.049-0.155,0.074c-0.333,0.158-0.678,0.311-1.042,0.457c-0.011,0.004-0.022,0.008-0.033,0.013   c-4.054,1.617-9.92,2.447-15.749,2.447c-0.402,0-0.799-0.013-1.199-0.02c-0.121-0.002-0.242-0.003-0.363-0.006   c-0.411-0.01-0.818-0.025-1.225-0.044c-0.275-0.012-0.549-0.027-0.823-0.043c-0.312-0.018-0.623-0.037-0.932-0.06   c-0.438-0.032-0.869-0.072-1.3-0.114c-0.17-0.017-0.342-0.03-0.511-0.048c-0.044-0.005-0.089-0.008-0.133-0.013v4.715   c2.072,0.24,4.242,0.368,6.48,0.368C88.665,57.446,95,54.363,95,52.78V49.204z"/><path d="M95,68.462V64.88c-3.906,2.315-10.953,3.51-17.948,3.51c-2.228,0-4.398-0.118-6.48-0.345v4.717   c2.087,0.244,4.262,0.368,6.485,0.368C88.667,73.131,95,70.047,95,68.462z"/><path d="M67.469,48.808v-2.388c-3.905,2.316-10.951,3.511-17.943,3.511c-6.993,0-14.039-1.195-17.944-3.511V50   c0,1.584,6.334,4.668,17.944,4.668S67.469,51.584,67.469,50V48.808z"/><path d="M28.478,48.504c-1.799,0.17-3.639,0.283-5.53,0.283c-6.995,0-14.043-1.196-17.948-3.515v3.577   c0,1.587,6.335,4.676,17.948,4.676c1.896,0,3.737-0.116,5.53-0.295V48.504z"/><path d="M5,60.955v3.577c0,1.587,6.335,4.676,17.948,4.676c1.894,0,3.736-0.116,5.53-0.295v-4.726   c-1.799,0.17-3.639,0.283-5.53,0.283C15.953,64.47,8.906,63.274,5,60.955z"/><path d="M28.478,40.688c-0.584,0.054-1.176,0.098-1.771,0.135c-0.079,0.005-0.159,0.007-0.239,0.012   c-1.088,0.063-2.187,0.096-3.29,0.099c-0.079,0-0.155,0.007-0.234,0.007c-3.106,0-6.221-0.237-9.069-0.702   c-0.022-0.004-0.044-0.007-0.066-0.011c-0.487-0.08-0.967-0.167-1.436-0.26c-0.024-0.005-0.048-0.01-0.072-0.015   c-0.468-0.094-0.927-0.194-1.375-0.301c-0.004-0.001-0.009-0.002-0.013-0.003c-0.424-0.102-0.836-0.211-1.24-0.325   c-0.068-0.019-0.135-0.038-0.202-0.057c-0.385-0.111-0.759-0.228-1.122-0.35c-0.062-0.021-0.123-0.043-0.184-0.064   c-0.744-0.258-1.438-0.539-2.074-0.843c-0.053-0.025-0.107-0.05-0.159-0.076c-0.301-0.148-0.588-0.302-0.86-0.461   C5.047,37.459,5.022,37.448,5,37.435v3.573c0,1.587,6.335,4.676,17.948,4.676c1.896,0,3.737-0.116,5.53-0.295V40.688z"/><path d="M28.478,28.769c-1.804-0.177-3.66-0.267-5.535-0.267C11.333,28.502,5,31.586,5,33.17c0,1.585,6.333,4.668,17.943,4.668   c1.075,0,2.14-0.038,3.196-0.096c0.324-0.018,0.642-0.047,0.963-0.07c0.463-0.034,0.918-0.082,1.375-0.127V28.769z"/><path d="M49.525,13.967c-11.61,0-17.944,3.084-17.944,4.668c0,1.584,6.334,4.668,17.944,4.668s17.943-3.084,17.943-4.668   C67.469,17.05,61.135,13.967,49.525,13.967z"/><path d="M67.469,30.737c-3.905,2.316-10.951,3.511-17.943,3.511c-6.993,0-14.039-1.195-17.944-3.511v3.581   c0,1.585,6.334,4.668,17.944,4.668s17.943-3.084,17.943-4.668V30.737z"/><path d="M28.478,56.345c-1.799,0.17-3.639,0.283-5.53,0.283c-6.995,0-14.043-1.196-17.948-3.515v3.577   c0,1.587,6.335,4.676,17.948,4.676c1.896,0,3.737-0.116,5.53-0.295V56.345z"/><path d="M67.469,22.9c-0.029,0.017-0.061,0.032-0.09,0.049c-0.2,0.116-0.408,0.231-0.624,0.341   c-0.023,0.012-0.043,0.024-0.066,0.035c-0.248,0.125-0.507,0.246-0.773,0.363c-0.05,0.022-0.102,0.044-0.153,0.065   c-0.242,0.104-0.492,0.206-0.748,0.304c-0.028,0.011-0.056,0.022-0.084,0.033c-4.038,1.529-9.738,2.315-15.405,2.315   c-5.664,0-11.362-0.785-15.399-2.312c-0.033-0.013-0.066-0.025-0.099-0.038c-0.251-0.096-0.495-0.195-0.732-0.298   c-0.055-0.023-0.11-0.047-0.164-0.07c-0.264-0.117-0.522-0.237-0.767-0.361c-0.027-0.014-0.051-0.028-0.078-0.042   c-0.212-0.109-0.416-0.221-0.612-0.335c-0.029-0.017-0.062-0.033-0.091-0.05v3.11v0.466c0,1.585,6.334,4.668,17.944,4.668   s17.943-3.084,17.943-4.668V22.9z"/><path d="M28.478,76.778v-4.75c-1.801,0.17-3.641,0.283-5.53,0.283c-6.995,0-14.043-1.196-17.948-3.515v3.58   c0,1.585,6.333,4.668,17.943,4.668C24.818,77.045,26.674,76.955,28.478,76.778z"/></g><text x="0" y="115" fill="#000000" font-size="5px" font-weight="bold" font-family="'Helvetica Neue', Helvetica, Arial-Unicode, Arial, Sans-serif">Created by fauzan akbar</text><text x="0" y="120" fill="#000000" font-size="5px" font-weight="bold" font-family="'Helvetica Neue', Helvetica, Arial-Unicode, Arial, Sans-serif">from the Noun Project</text></svg>