<?xml version="1.0" standalone="no"?>
<!DOCTYPE svg PUBLIC "-//W3C//DTD SVG 20010904//EN"
 "http://www.w3.org/TR/2001/REC-SVG-20010904/DTD/svg10.dtd">
<svg version="1.0" xmlns="http://www.w3.org/2000/svg"
 width="1270.000000pt" height="1280.000000pt" viewBox="0 0 1270.000000 1280.000000"
 preserveAspectRatio="xMidYMid meet">
<metadata>
Created by potrace 1.15, written by Peter Selinger 2001-2017
</metadata>
<g transform="translate(0.000000,1280.000000) scale(0.100000,-0.100000)"
fill="#000000" stroke="none">
<path d="M5980 12782 c-82 -27 -141 -65 -218 -141 -158 -154 -251 -326 -322
-596 -53 -200 -128 -558 -144 -690 -17 -132 -38 -198 -67 -203 -24 -4 -64 33
-119 111 -66 96 -104 120 -191 125 -84 5 -154 -24 -230 -95 -127 -119 -163
-319 -94 -533 29 -91 208 -472 261 -556 58 -90 77 -159 58 -209 -9 -23 -52
-42 -116 -49 -229 -28 -568 -169 -848 -353 -151 -99 -201 -138 -410 -317 -330
-283 -555 -487 -833 -756 -266 -258 -473 -531 -634 -838 -31 -59 -73 -132 -93
-162 -157 -235 -324 -559 -450 -875 -184 -460 -262 -769 -307 -1205 -21 -212
-24 -855 -5 -1155 7 -104 17 -298 22 -430 15 -363 32 -426 251 -907 54 -120
101 -228 105 -242 5 -22 0 -26 -53 -46 -32 -12 -125 -37 -208 -56 -82 -19
-172 -42 -200 -51 -101 -33 -280 -115 -349 -160 -124 -80 -264 -230 -386 -413
-24 -36 -80 -104 -126 -152 -208 -220 -285 -372 -269 -531 21 -219 168 -496
338 -640 101 -86 365 -186 1011 -383 121 -37 275 -48 651 -47 637 0 946 56
1345 243 80 37 226 98 325 135 302 112 482 206 568 297 46 48 56 48 195 -6 52
-20 115 -41 140 -46 26 -5 80 -21 119 -34 100 -35 254 -63 440 -81 336 -33
442 -47 544 -70 101 -22 114 -23 293 -14 103 5 290 18 414 29 125 11 281 25
347 30 226 19 358 49 698 155 221 68 344 100 490 125 62 10 125 24 141 29 15
6 47 11 70 11 63 0 112 -40 195 -163 73 -108 154 -188 281 -282 118 -86 383
-202 590 -256 47 -12 203 -64 347 -116 290 -103 413 -136 566 -153 56 -6 158
-21 227 -33 105 -18 162 -22 355 -21 259 1 401 18 675 80 85 20 193 44 240 54
303 64 621 243 799 450 165 192 231 342 271 613 24 168 25 234 4 335 -60 293
-286 566 -589 712 -174 84 -462 156 -715 181 -319 30 -781 -18 -1029 -107 -88
-32 -149 -42 -164 -28 -10 10 10 41 76 124 86 106 146 202 295 467 72 128 152
264 178 303 25 39 91 170 145 291 254 566 348 881 368 1241 43 755 -186 1548
-730 2528 -64 115 -109 183 -148 225 -67 70 -164 199 -279 372 -143 213 -205
283 -372 418 -63 51 -196 166 -295 255 -99 89 -216 191 -260 227 -172 139
-361 251 -505 298 -30 10 -81 39 -115 65 -88 70 -174 122 -430 264 -226 125
-396 233 -505 320 -64 51 -446 252 -504 266 -47 10 -68 35 -96 113 -35 96 -38
97 -225 97 -217 0 -238 15 -175 128 16 29 34 70 41 90 22 69 79 172 165 298
47 69 108 162 135 207 28 45 67 107 88 137 59 85 94 181 99 275 5 94 -7 144
-48 207 -39 58 -65 75 -146 95 -53 13 -78 14 -133 6 -126 -20 -257 -86 -366
-185 -59 -54 -63 -56 -69 -35 -12 45 -5 259 15 467 23 241 27 481 10 583 -18
104 -57 218 -90 257 -71 87 -212 121 -331 82z m247 -709 c-1 -49 -3 -9 -3 87
0 96 2 136 3 88 2 -49 2 -127 0 -175z m-1510 -1235 c-3 -8 -6 -5 -6 6 -1 11 2
17 5 13 3 -3 4 -12 1 -19z m1706 -590 c-9 -41 -25 -66 -50 -77 -36 -17 -39
-13 -8 11 15 12 34 36 41 55 16 38 24 43 17 11z m112 -257 c22 -4 -24 -6 -105
-3 -80 2 -149 9 -155 14 -11 11 189 3 260 -11z m-666 -1275 c58 -13 147 -31
196 -41 269 -52 529 -185 728 -374 51 -48 110 -98 132 -111 161 -98 322 -298
513 -635 50 -88 114 -189 142 -225 61 -78 105 -168 127 -258 79 -334 -134
-1175 -403 -1589 -205 -316 -414 -508 -769 -705 -138 -77 -416 -179 -647 -238
-212 -55 -267 -62 -498 -67 -356 -8 -548 21 -892 133 -246 81 -333 117 -424
176 -94 61 -138 100 -201 183 -29 39 -85 111 -124 160 -120 154 -206 356 -245
575 -25 136 -25 489 -1 619 38 205 98 375 216 608 140 279 187 351 367 561
206 239 440 496 594 652 254 257 520 429 860 556 137 52 179 54 329 20z m3817
-623 c60 -59 130 -133 154 -163 24 -30 -12 2 -79 72 -67 70 -150 153 -184 184
-34 31 -48 47 -31 36 17 -11 80 -69 140 -129z m-7756 -973 c-11 -22 -23 -40
-25 -40 -3 0 4 18 15 40 11 22 23 40 25 40 3 0 -4 -18 -15 -40z m9132 -2175
c0 -143 -4 -272 -8 -287 -6 -16 -9 107 -9 304 0 211 3 315 8 287 5 -24 9 -161
9 -304z m-9695 288 c-3 -10 -5 -2 -5 17 0 19 2 27 5 18 2 -10 2 -26 0 -35z
m1827 -1175 c22 -39 11 -29 -29 27 -17 23 -21 33 -9 23 10 -9 28 -32 38 -50z
m325 -340 c84 -63 131 -109 152 -150 37 -71 18 -150 -48 -209 -20 -17 -54 -58
-76 -91 -46 -69 -91 -102 -118 -87 -24 13 -42 106 -35 187 3 37 8 130 11 207
3 77 8 150 11 163 7 34 40 28 103 -20z m4891 32 c-8 -5 -19 -10 -25 -10 -5 0
-3 5 5 10 8 5 20 10 25 10 6 0 3 -5 -5 -10z m-4130 -394 c8 -3 2 -4 -15 -1
-31 6 -175 71 -175 79 0 4 59 -20 190 -78z m3310 40 c0 -2 -11 -11 -25 -20
-14 -9 -25 -12 -25 -6 0 6 10 15 23 20 27 11 27 11 27 6z m-832 -106 c-31 -11
-74 -21 -95 -24 -21 -3 -2 5 42 18 94 28 135 32 53 6z m523 -62 c-12 -35 -53
-121 -92 -193 -38 -71 -84 -159 -100 -195 -34 -73 -64 -110 -90 -110 -31 0
-82 54 -133 141 -27 46 -71 119 -98 163 -27 43 -47 80 -45 82 2 2 37 13 78 24
41 10 162 50 269 88 241 86 224 81 228 71 2 -5 -6 -37 -17 -71z m-1548 -85
c-23 -2 -64 -2 -90 0 -26 2 -7 3 42 3 50 0 71 -1 48 -3z m815 -87 c15 -8 36
-24 47 -36 18 -20 16 -20 -19 4 -35 24 -48 26 -145 27 -68 1 -97 4 -81 9 43
14 169 11 198 -4z m-4493 -715 c61 -65 69 -76 33 -47 -26 21 -73 70 -105 109
-61 77 -88 117 -38 57 16 -19 66 -73 110 -119z m-321 134 c3 -8 1 -15 -3 -15
-5 0 -11 7 -15 15 -3 8 -1 15 3 15 5 0 11 -7 15 -15z m551 -505 c17 -18 23
-29 15 -25 -20 12 -160 127 -160 132 0 9 118 -78 145 -107z m7645 36 c0 -2
-16 -13 -35 -25 -19 -11 -35 -18 -35 -16 0 5 61 45 68 45 1 0 2 -2 2 -4z
m2377 -45 c23 -17 56 -51 74 -74 l32 -42 -39 40 c-21 22 -61 60 -89 84 -54 47
-46 44 22 -8z m-9407 -271 c23 -12 39 -24 36 -27 -6 -7 -192 102 -201 118 -4
5 23 -8 58 -30 36 -22 84 -49 107 -61z m-2666 -216 c-15 -25 -37 -71 -50 -102
-17 -40 -24 -50 -24 -32 0 32 31 100 66 145 37 48 40 44 8 -11z m8161 -384
c-3 -5 -12 -10 -18 -10 -7 0 -6 4 3 10 19 12 23 12 15 0z m-4341 -53 c18 -13
18 -15 1 -40 -20 -32 -29 -35 -20 -7 3 10 1 28 -5 40 -12 23 -2 26 24 7z
m8370 -159 c-48 -95 -160 -221 -279 -314 -27 -21 -5 4 49 56 97 92 191 208
231 282 30 57 30 37 -1 -24z m-9344 -338 c-8 -5 -19 -10 -25 -10 -5 0 -3 5 5
10 8 5 20 10 25 10 6 0 3 -5 -5 -10z m-55 -20 c-27 -12 -43 -12 -25 0 8 5 22
9 30 9 10 0 8 -3 -5 -9z m6865 -245 c96 -24 167 -44 157 -44 -37 -2 -367 85
-337 88 3 0 84 -19 180 -44z m207 -51 c-3 -3 -12 -4 -19 -1 -8 3 -5 6 6 6 11
1 17 -2 13 -5z"/>
<path d="M5725 7514 c-16 -3 -74 -16 -127 -29 -80 -20 -117 -37 -205 -91 -188
-116 -295 -196 -388 -289 -95 -94 -96 -96 -312 -480 -85 -152 -153 -308 -182
-418 -29 -110 -44 -241 -37 -306 10 -92 47 -243 71 -291 92 -185 308 -307 600
-339 343 -38 371 -39 481 -11 88 22 486 214 589 283 218 148 386 426 479 792
31 121 32 196 6 341 -68 379 -252 642 -505 724 -21 7 -57 26 -78 41 -70 51
-141 71 -257 74 -58 2 -118 1 -135 -1z m-156 -504 c98 -35 130 -86 111 -176
-12 -59 -72 -157 -121 -198 -48 -41 -195 -117 -257 -133 -86 -23 -201 -14
-279 21 -77 35 -94 54 -95 103 -1 82 28 158 79 204 35 33 238 144 318 175 77
30 170 31 244 4z m133 -708 c71 -49 83 -68 83 -126 0 -42 -6 -60 -27 -88 -108
-141 -338 -144 -338 -4 0 82 68 203 133 236 52 26 92 22 149 -18z"/>
</g>
</svg>
