<?xml version="1.0" standalone="no"?>
<!DOCTYPE svg PUBLIC "-//W3C//DTD SVG 20010904//EN"
 "http://www.w3.org/TR/2001/REC-SVG-20010904/DTD/svg10.dtd">
<svg version="1.0" xmlns="http://www.w3.org/2000/svg"
 width="852.000000pt" height="1280.000000pt" viewBox="0 0 852.000000 1280.000000"
 preserveAspectRatio="xMidYMid meet">
<metadata>
Created by potrace 1.15, written by Peter Selinger 2001-2017
</metadata>
<g transform="translate(0.000000,1280.000000) scale(0.100000,-0.100000)"
fill="#000000" stroke="none">
<path d="M3920 12790 c-1230 -72 -2320 -649 -3052 -1616 -968 -1280 -1142
-3010 -441 -4408 203 -405 432 -712 913 -1221 556 -589 764 -887 945 -1350
102 -264 141 -353 194 -448 l50 -88 -30 -44 c-62 -92 -109 -251 -109 -370 0
-114 44 -261 106 -357 17 -26 17 -28 -14 -95 -43 -94 -62 -181 -62 -292 0
-142 37 -265 107 -359 l25 -34 -35 -76 c-50 -108 -69 -191 -70 -302 -1 -155
39 -275 126 -382 l47 -58 0 -82 c0 -110 21 -193 77 -308 38 -79 59 -108 132
-180 68 -69 103 -95 171 -128 87 -44 203 -75 324 -89 l70 -8 17 -83 c47 -216
205 -374 404 -402 115 -16 827 -12 908 5 202 42 340 188 385 404 l16 80 66 6
c235 22 429 117 548 268 108 139 152 251 160 416 5 111 5 114 38 150 45 48 99
152 118 227 20 79 21 233 0 320 -8 37 -31 102 -50 144 l-35 77 39 61 c66 102
87 185 86 337 0 114 -4 140 -27 210 -15 44 -36 95 -46 114 l-18 34 34 55 c46
78 70 147 84 245 21 140 -16 308 -95 440 l-34 57 59 114 c33 63 103 222 155
353 147 366 255 566 429 798 132 176 245 304 609 690 366 388 516 578 701 885
550 915 713 2023 454 3090 -186 763 -583 1473 -1129 2020 -668 669 -1520 1069
-2480 1165 -185 19 -667 27 -870 15z"/>
</g>
</svg>
