<?xml version="1.0" standalone="no"?>
<!DOCTYPE svg PUBLIC "-//W3C//DTD SVG 20010904//EN"
 "http://www.w3.org/TR/2001/REC-SVG-20010904/DTD/svg10.dtd">
<svg version="1.0" xmlns="http://www.w3.org/2000/svg"
 width="640.000000pt" height="1280.000000pt" viewBox="0 0 640.000000 1280.000000"
 preserveAspectRatio="xMidYMid meet">
<metadata>
Created by potrace 1.15, written by Peter Selinger 2001-2017
</metadata>
<g transform="translate(0.000000,1280.000000) scale(0.100000,-0.100000)"
fill="#000000" stroke="none">
<path d="M2212 12783 c-18 -9 -37 -24 -43 -34 -6 -12 -8 -2146 -6 -5941 3
-5483 4 -5928 19 -5988 105 -411 378 -688 778 -792 126 -32 359 -32 484 1 388
101 664 378 767 766 l24 90 3 5923 c1 3821 -1 5930 -8 5941 -5 10 -25 26 -44
35 -31 14 -127 16 -988 16 -859 0 -956 -2 -986 -17z m1977 -37 l21 -19 -2
-5921 -3 -5921 -27 -96 c-102 -370 -377 -640 -745 -731 -131 -32 -341 -30
-474 5 -88 23 -249 88 -249 101 0 3 25 -6 56 -20 31 -14 59 -23 61 -20 2 2 -5
7 -16 11 -19 6 -21 14 -21 76 0 45 4 69 12 69 6 0 -17 18 -50 40 -77 50 -81
60 -6 15 478 -288 1102 -58 1279 470 47 140 45 21 45 2981 0 2719 0 2784 -19
2784 -14 0 -22 -12 -30 -47 -14 -55 -36 -100 -64 -130 -20 -22 -26 -23 -222
-23 -188 0 -203 1 -220 20 -43 48 -138 51 -206 6 l-39 -26 -272 2 c-154 1
-247 4 -213 8 33 4 48 7 33 8 l-28 2 0 3174 c0 2530 3 3175 13 3179 6 3 1 6
-13 7 -14 1 -34 5 -45 10 -12 5 286 8 701 7 695 -2 723 -3 743 -21z m-159
-11780 c-35 -272 -208 -512 -459 -636 -92 -46 -159 -66 -271 -79 -114 -15
-155 -11 -55 4 44 7 68 13 53 14 -29 1 -39 25 -15 35 6 3 -6 3 -28 1 l-40 -5
40 13 c55 19 97 41 134 72 30 26 85 95 65 82 -12 -7 -38 58 -30 72 3 5 -14 14
-39 20 -25 6 -45 12 -45 14 0 1 30 1 68 -1 61 -3 71 -1 114 27 29 18 55 46 68
70 26 53 27 134 1 183 -20 35 -20 36 -1 53 49 45 53 174 7 244 -15 22 -47 52
-73 67 -124 73 -285 -2 -313 -147 -6 -32 -9 -37 -10 -16 -1 34 23 95 50 123
19 20 20 36 22 225 l2 204 -30 28 -30 29 33 -26 c60 -47 134 -31 168 36 30 58
-10 138 -76 153 -37 8 -93 -17 -110 -50 -7 -14 -15 -23 -17 -21 -10 9 20 48
50 66 18 11 26 20 20 20 -10 0 -13 30 -13 118 0 81 4 122 13 131 10 11 8 11
-10 2 -12 -6 -39 -10 -60 -10 l-38 2 43 6 c55 9 94 39 109 84 25 75 -22 146
-105 158 -46 6 -46 6 -9 8 21 0 48 -4 60 -11 19 -10 20 -9 10 4 -9 10 -12 53
-11 141 2 115 0 129 -19 149 -31 34 -43 63 -43 102 0 49 15 83 53 119 17 17
26 27 20 23 -10 -6 -13 37 -13 203 0 158 3 211 13 214 6 3 -5 6 -25 6 -25 1
-46 9 -65 27 l-28 26 29 -21 c91 -66 204 45 136 132 -11 14 -29 29 -40 32 -16
5 -17 10 -10 31 30 77 -13 177 -95 222 -11 6 -15 12 -9 12 16 0 75 -47 97 -77
11 -16 16 -19 11 -8 -4 11 -9 38 -10 60 -1 23 -9 55 -18 72 -20 40 -21 105 -1
144 13 25 16 70 14 267 -1 130 -2 253 -2 272 0 19 2 76 4 126 3 74 2 87 -7 65
-6 -14 -22 -35 -34 -46 -20 -17 -19 -14 5 18 22 30 28 49 28 85 0 31 6 55 19
71 38 49 15 111 -52 141 -24 10 -24 10 5 4 17 -3 39 -13 50 -22 20 -17 20 -17
2 5 -15 17 -18 34 -14 85 2 35 7 74 11 88 l7 25 -11 -25 c-13 -30 -57 -78 -85
-92 -11 -5 -3 4 17 21 43 37 73 107 65 154 l-5 33 34 -10 c19 -6 34 -17 34
-24 0 -26 52 -62 90 -62 57 0 92 40 89 100 -2 25 3 62 10 84 8 22 11 60 9 88
-17 171 -251 209 -328 54 -11 -23 -20 -34 -20 -25 0 19 55 98 73 105 17 6 13
635 -5 667 -6 12 -12 45 -12 74 l0 52 -101 4 -100 3 112 2 111 2 -10 -35 c-14
-43 11 -115 49 -145 47 -37 96 -45 148 -26 72 28 115 105 96 173 l-9 30 201 7
c228 8 241 12 273 91 19 43 19 -18 22 -2668 2 -1817 -1 -2738 -8 -2791z m-843
4387 c-3 -10 -5 -2 -5 17 0 19 2 27 5 18 2 -10 2 -26 0 -35z m8 -33 c3 -6 -1
-7 -9 -4 -18 7 -21 14 -7 14 6 0 13 -4 16 -10z m15 -2663 c0 -12 0 -11 -24 28
l-17 30 20 -24 c12 -13 21 -28 21 -34z m7 -84 c-2 -16 -4 -5 -4 22 0 28 2 40
4 28 2 -13 2 -35 0 -50z m-16 -56 c-10 -9 -11 -8 -5 6 3 10 9 15 12 12 3 -3 0
-11 -7 -18z m-11 -20 c0 -2 -12 -14 -27 -28 l-28 -24 24 28 c23 25 31 32 31
24z m-55 -377 c10 -11 16 -20 13 -20 -3 0 -13 9 -23 20 -10 11 -16 20 -13 20
3 0 13 -9 23 -20z m5 -85 c13 -14 21 -25 18 -25 -2 0 -15 11 -28 25 -13 14
-21 25 -18 25 2 0 15 -11 28 -25z m38 -60 c-3 -3 -9 2 -12 12 -6 14 -5 15 5 6
7 -7 10 -15 7 -18z m9 -37 c-3 -8 -6 -5 -6 6 -1 11 2 17 5 13 3 -3 4 -12 1
-19z m0 -90 c-3 -8 -6 -5 -6 6 -1 11 2 17 5 13 3 -3 4 -12 1 -19z m-27 -61 c0
-2 -12 -14 -27 -28 l-28 -24 24 28 c23 25 31 32 31 24z m54 -87 c4 -25 3 -31
-4 -20 -5 8 -10 26 -10 39 0 32 6 24 14 -19z m-37 -322 c-3 -7 -5 -2 -5 12 0
14 2 19 5 13 2 -7 2 -19 0 -25z m30 -390 c-3 -7 -5 -2 -5 12 0 14 2 19 5 13 2
-7 2 -19 0 -25z m63 -102 c0 -3 -4 -8 -10 -11 -5 -3 -10 -1 -10 4 0 6 5 11 10
11 6 0 10 -2 10 -4z m21 -273 c13 -16 12 -17 -3 -4 -17 13 -22 21 -14 21 2 0
10 -8 17 -17z m-178 -360 c-7 -2 -19 -2 -25 0 -7 3 -2 5 12 5 14 0 19 -2 13
-5z"/>
<path d="M3585 6111 c-76 -21 -99 -98 -46 -152 38 -37 88 -39 128 -5 69 59 5
181 -82 157z"/>
<path d="M3292 5165 c0 -16 2 -22 5 -12 2 9 2 23 0 30 -3 6 -5 -1 -5 -18z"/>
<path d="M3282 4730 c0 -14 2 -19 5 -12 2 6 2 18 0 25 -3 6 -5 1 -5 -13z"/>
<path d="M3330 4573 c-19 -9 -37 -16 -40 -15 -7 1 -11 -27 -11 -78 0 -51 4
-79 11 -77 3 1 19 -7 37 -16 42 -22 71 -21 110 3 45 27 62 84 38 133 -10 21
-30 42 -50 51 -41 20 -51 19 -95 -1z"/>
<path d="M3337 4003 c-4 -3 -17 -7 -30 -8 -12 -1 -22 -6 -22 -11 -1 -5 -9 -23
-18 -41 -22 -41 -22 -105 0 -146 9 -18 16 -35 16 -38 -1 -3 3 -6 10 -7 7 0 31
-8 55 -16 168 -62 264 181 105 263 -24 12 -106 15 -116 4z"/>
<path d="M3315 2860 c-108 -33 -128 -192 -32 -250 62 -38 152 -17 192 44 24
36 23 111 -2 143 -43 58 -99 81 -158 63z"/>
<path d="M3289 2558 c-10 -38 -7 -84 7 -99 39 -43 116 -3 99 51 -10 32 -49 54
-74 41 -25 -14 -34 -14 -26 -1 3 6 4 10 1 10 -3 0 -6 -1 -7 -2z"/>
<path d="M3288 1593 c7 -3 16 -2 19 1 4 3 -2 6 -13 5 -11 0 -14 -3 -6 -6z"/>
</g>
</svg>
