<svg xmlns="http://www.w3.org/2000/svg" xmlns:xlink="http://www.w3.org/1999/xlink" xml:space="preserve" style="shape-rendering:geometricPrecision;text-rendering:geometricPrecision;image-rendering:optimizeQuality;" viewBox="0 0 6.82666 8.533325000000001" x="0px" y="0px" fill-rule="evenodd" clip-rule="evenodd"><defs><style type="text/css">
   
    .fil1 {fill:none}
    .fil0 {fill:black;fill-rule:nonzero}
   
  </style></defs><g><path class="fil0" d="M0.906661 3.17051l5.01333 0c0.0294528,0 0.0533346,0.0238819 0.0533346,0.0533346l0 2.35c0,0.0294528 -0.0238819,0.0533346 -0.0533346,0.0533346l-5.01333 0c-0.0294528,0 -0.0533346,-0.0238819 -0.0533346,-0.0533346l0 -2.35c0,-0.0294528 0.0238819,-0.0533346 0.0533346,-0.0533346zm4.96 0.106669l-4.90667 0 0 2.24333 4.90667 0 0 -2.24333z"/><path class="fil0" d="M1.92422 4.40931c0,-0.130902 0.0350669,-0.233346 0.105382,-0.307335 0.070315,-0.0739882 0.161012,-0.111071 0.272268,-0.111071 0.0727008,0 0.138425,0.0174409 0.196807,0.0521378 0.0583819,0.0348819 0.102996,0.0833504 0.133657,0.145591 0.0306575,0.0620512 0.0458976,0.132736 0.0458976,0.211496 0,0.0800472 -0.0159724,0.151646 -0.0482874,0.214618 -0.032311,0.0631535 -0.0780236,0.11089 -0.137142,0.143386 -0.0592992,0.0324961 -0.123004,0.0486496 -0.191484,0.0486496 -0.0743543,0 -0.14063,-0.0178071 -0.199012,-0.0537913 -0.0585669,-0.0357992 -0.102811,-0.0848189 -0.132921,-0.146874 -0.0301102,-0.0618701 -0.0451654,-0.127594 -0.0451654,-0.196807zm0.107587 0.00164961c0,0.0951024 0.0255197,0.169823 0.0765551,0.224531 0.0512244,0.0547126 0.115295,0.0820669 0.192406,0.0820669 0.0785748,0 0.143201,-0.0275394 0.19387,-0.0827992 0.0506732,-0.0552598 0.0761929,-0.133654 0.0761929,-0.235181 0,-0.0640748 -0.0110157,-0.120067 -0.0326811,-0.167984 -0.0216614,-0.0479173 -0.0534252,-0.0850039 -0.0950984,-0.111441 -0.0418583,-0.0262559 -0.0886772,-0.0394724 -0.14063,-0.0394724 -0.0739882,0 -0.137512,0.0253346 -0.190752,0.076189 -0.0532441,0.0506732 -0.0798622,0.135492 -0.0798622,0.254091zm0.780996 0.382421l0 -0.788524 0.297417 0c0.0523228,0 0.0923465,0.00257087 0.119886,0.00752756 0.0387362,0.0064252 0.0712323,0.0187244 0.0974843,0.0369016 0.0260709,0.0179921 0.047185,0.0435118 0.0631575,0.0760079 0.0159724,0.0326772 0.0238661,0.0684764 0.0238661,0.107583 0,0.0670118 -0.0212953,0.123925 -0.0638898,0.170374 -0.0427756,0.0462638 -0.119886,0.0695787 -0.231327,0.0695787l-0.202315 0 0 0.320551 -0.10428 0zm0.10428 -0.41363l0.203969 0c0.067378,0 0.115295,-0.0124843 0.143567,-0.0376378 0.0282756,-0.0251496 0.0424094,-0.0604016 0.0424094,-0.105933 0,-0.0330433 -0.00825984,-0.0613189 -0.0249646,-0.0848189 -0.0167087,-0.0235 -0.0385551,-0.0389213 -0.0659094,-0.0464488 -0.017626,-0.00458661 -0.049937,-0.00697638 -0.0973031,-0.00697638l-0.201768 0 0 0.281815zm0.632654 0.41363l0 -0.788524 0.570051 0 0 0.0930787 -0.465772 0 0 0.241425 0.436213 0 0 0.0925276 -0.436213 0 0 0.268409 0.48413 0 0 0.0930827 -0.588409 0zm0.731429 0l0 -0.788524 0.107031 0 0.414185 0.619071 0 -0.619071 0.100055 0 0 0.788524 -0.107031 0 -0.414185 -0.619622 0 0.619622 -0.100055 0z"/><polygon class="fil0" points="1.69591,3.26072 0.94663,4.03949 0.869961,3.96574 1.61924,3.18697 "/><path class="fil0" d="M3.41333 1.19949c0.129823,0 0.247366,0.0526299 0.332445,0.137709 0.0850787,0.0850787 0.137709,0.202622 0.137709,0.332445 0,0.129819 -0.0526299,0.247362 -0.137709,0.332441 -0.0850787,0.0850787 -0.202622,0.137709 -0.332445,0.137709 -0.129823,0 -0.247366,-0.0526299 -0.332445,-0.137709 -0.0850787,-0.0850787 -0.137709,-0.202622 -0.137709,-0.332441 0,-0.129823 0.0526299,-0.247366 0.137709,-0.332445 0.0850787,-0.0850787 0.202622,-0.137709 0.332445,-0.137709zm0.257028 0.213126c-0.0657717,-0.0657717 -0.15665,-0.106457 -0.257028,-0.106457 -0.100378,0 -0.191256,0.040685 -0.257028,0.106457 -0.0657717,0.0657717 -0.106457,0.15665 -0.106457,0.257028 0,0.100374 0.040685,0.191252 0.106457,0.257024 0.0657717,0.0657717 0.15665,0.106457 0.257028,0.106457 0.100378,0 0.191256,-0.040685 0.257028,-0.106457 0.0657717,-0.0657717 0.106457,-0.15665 0.106457,-0.257024 0,-0.100378 -0.040685,-0.191256 -0.106457,-0.257028z"/><path class="fil0" d="M3.41333 1.4309c0.0659173,0 0.125606,0.0267244 0.168815,0.0699291 0.0432047,0.0432087 0.0699291,0.102898 0.0699291,0.168815 0,0.0659173 -0.0267283,0.12561 -0.0699331,0.168811 -0.0432008,0.0432047 -0.102886,0.0699331 -0.168811,0.0699331 -0.0659252,0 -0.12561,-0.0267283 -0.168811,-0.0699331 -0.0432047,-0.0432008 -0.0699331,-0.102894 -0.0699331,-0.168811 0,-0.0659173 0.0267244,-0.125606 0.0699291,-0.168815 0.0432087,-0.0432047 0.102898,-0.0699291 0.168815,-0.0699291zm0.0933976 0.145346c-0.0238976,-0.0238937 -0.0569213,-0.0386772 -0.0933976,-0.0386772 -0.0364764,0 -0.0695,0.0147835 -0.0933976,0.0386772 -0.0238937,0.0238976 -0.0386772,0.0569213 -0.0386772,0.0933976 0,0.0364764 0.0147835,0.0695 0.0386811,0.0933937 0.0238937,0.0238976 0.0569173,0.0386811 0.0933937,0.0386811 0.0364764,0 0.0695,-0.0147835 0.0933937,-0.0386811 0.0238976,-0.0238937 0.0386811,-0.0569173 0.0386811,-0.0933937 0,-0.0364764 -0.0147835,-0.0695 -0.0386772,-0.0933976z"/><g><path class="fil0" d="M3.84043 2.03084c-0.0334843,-0.0334843 -0.0910433,-0.00968504 -0.0910433,0.0377126 0,0.0141929 0.00557874,0.0276732 0.0156181,0.0377126l0.0754213 0.0754213c0.0219606,0.0219606 0.0544843,0.0193071 0.0741339,0.00125984 -0.00872835,0.00916929 -0.0143307,0.0216575 -0.0143307,0.0364488 0,0.0141929 0.00557874,0.0276732 0.0156181,0.0377126l0.0754213 0.0754213c0.0219606,0.0219606 0.0544843,0.0193071 0.0741339,0.00125984 -0.00872835,0.00916929 -0.0143307,0.0216575 -0.0143307,0.0364488 0,0.0141929 0.00557874,0.0276732 0.0156181,0.0377126l0.0754213 0.0754213c0.0219685,0.0219685 0.0545039,0.019311 0.0741535,0.00124016 -0.00874016,0.00917323 -0.0143504,0.0216693 -0.0143504,0.0364724 0,0.0141929 0.00557874,0.0276732 0.0156181,0.0377126l0.0754252 0.0754252c0.0219803,0.0219803 0.0545276,0.019311 0.0741772,0.00122047 -0.00875591,0.00917717 -0.0143701,0.0216811 -0.0143701,0.0364921 0,0.0141929 0.00557874,0.0276732 0.0156181,0.0377126l0.0754252 0.0754252c0.0219803,0.0219803 0.0545276,0.019311 0.0741772,0.00122047 -0.00875591,0.00917717 -0.0143701,0.0216811 -0.0143701,0.0364921 0,0.0141929 0.00557874,0.0276732 0.0156181,0.0377126l0.0754252 0.0754252c0.0219803,0.0219803 0.0545276,0.019311 0.0741772,0.00122047 -0.00875591,0.00917717 -0.0143701,0.0216811 -0.0143701,0.0364921 0,0.0141929 0.00557874,0.0276732 0.0156181,0.0377126l0.0754252 0.0754252c0.0219803,0.0219803 0.0545276,0.019311 0.0741772,0.00122047 -0.00875591,0.00917717 -0.0143701,0.0216811 -0.0143701,0.0364921 0,0.0141929 0.00557874,0.0276732 0.0156181,0.0377126l0.0154803 0.0154803c0.0328425,0.0328425 0.089311,0.0106535 0.0910118,-0.0357953 0.000370079,-0.0150354 -0.00490551,-0.0289488 -0.0155866,-0.0396299l-0.0154803 -0.0154803c-0.0221102,-0.0221102 -0.0547087,-0.0192402 -0.074311,-0.00109843 0.00839764,-0.00876378 0.0139567,-0.0206142 0.0144724,-0.0346969 0.000370079,-0.0150354 -0.00490551,-0.0289488 -0.0155866,-0.0396299l-0.0754252 -0.0754252c-0.0221102,-0.0221102 -0.0547087,-0.0192402 -0.074311,-0.00109843 0.00839764,-0.00876378 0.0139567,-0.0206142 0.0144724,-0.0346969 0.000370079,-0.0150354 -0.00490551,-0.0289488 -0.0155866,-0.0396299l-0.0754252 -0.0754252c-0.0221102,-0.0221102 -0.0547087,-0.0192402 -0.074311,-0.00109843 0.00839764,-0.00876378 0.0139567,-0.0206142 0.0144724,-0.0346969 0.000370079,-0.0150354 -0.00490551,-0.0289488 -0.0155866,-0.0396299l-0.0754252 -0.0754252c-0.0221102,-0.0221102 -0.0547087,-0.0192402 -0.074311,-0.00109843 0.00839764,-0.00876378 0.0139567,-0.0206142 0.0144724,-0.0346969 0.000370079,-0.0150354 -0.00490551,-0.0289488 -0.0155866,-0.0396299l-0.0754252 -0.0754252c-0.0220906,-0.0220906 -0.0546614,-0.0192441 -0.0742677,-0.00114173 0.00837795,-0.00876378 0.0139173,-0.0205906 0.0144331,-0.0346535 0.000370079,-0.0150354 -0.00490551,-0.0289488 -0.0155866,-0.0396299l-0.0754213 -0.0754213c-0.0220748,-0.0220748 -0.0546142,-0.019248 -0.0742244,-0.0011811 0.00835433,-0.00875984 0.013874,-0.0205709 0.0143898,-0.0346102 0.000370079,-0.0150354 -0.00490551,-0.0289488 -0.0155866,-0.0396299l-0.0754213 -0.0754213c-0.0220748,-0.0220748 -0.0546142,-0.019248 -0.0742244,-0.0011811 0.00835433,-0.00875984 0.013874,-0.0205709 0.0143898,-0.0346102 0.000370079,-0.0150354 -0.00490551,-0.0289488 -0.0155866,-0.0396299l-0.0754213 -0.0754213z"/><path class="fil0" d="M3.06166 2.10626c0.0328425,-0.0328425 0.0106535,-0.089311 -0.0357953,-0.0910118 -0.0150354,-0.000370079 -0.0289488,0.00490551 -0.0396299,0.0155866l-0.0754213 0.0754213c-0.0220748,0.0220748 -0.019248,0.0546142 -0.0011811,0.0742244 -0.00875591,-0.00835827 -0.0205709,-0.013878 -0.0346102,-0.0143898 -0.0150354,-0.000370079 -0.0289488,0.00490551 -0.0396299,0.0155866l-0.0754213 0.0754213c-0.0220748,0.0220748 -0.019248,0.0546142 -0.0011811,0.0742244 -0.00875591,-0.00835827 -0.0205709,-0.013878 -0.0346102,-0.0143898 -0.0150354,-0.000370079 -0.0289488,0.00490551 -0.0396299,0.0155866l-0.0754213 0.0754213c-0.0220906,0.0220906 -0.0192441,0.0546614 -0.0011378,0.0742677 -0.00875984,-0.00837795 -0.0205945,-0.0139134 -0.0346535,-0.0144291 -0.0150354,-0.000370079 -0.0289488,0.00490551 -0.0396299,0.0155866l-0.0754252 0.0754252c-0.0221102,0.0221102 -0.0192402,0.0547087 -0.00109843,0.074311 -0.00876378,-0.00840157 -0.0206142,-0.0139567 -0.0346969,-0.0144724 -0.0150354,-0.000370079 -0.0289488,0.00490551 -0.0396299,0.0155866l-0.0754252 0.0754252c-0.0221102,0.0221102 -0.0192402,0.0547087 -0.00109843,0.074311 -0.00876378,-0.00840157 -0.0206142,-0.0139567 -0.0346969,-0.0144724 -0.0150354,-0.000370079 -0.0289488,0.00490551 -0.0396299,0.0155866l-0.0754252 0.0754252c-0.0221102,0.0221102 -0.0192402,0.0547087 -0.00109843,0.074311 -0.00876378,-0.00840157 -0.0206142,-0.0139567 -0.0346969,-0.0144724 -0.0150354,-0.000370079 -0.0289488,0.00490551 -0.0396299,0.0155866l-0.0754252 0.0754252c-0.0221102,0.0221102 -0.0192402,0.0547087 -0.00109843,0.074311 -0.00876378,-0.00840157 -0.0206142,-0.0139567 -0.0346969,-0.0144724 -0.0150354,-0.000370079 -0.0289488,0.00490551 -0.0396299,0.0155866l-0.0154803 0.0154803c-0.0334843,0.0334843 -0.00968504,0.0910433 0.0377126,0.0910433 0.0141929,0 0.0276732,-0.00557874 0.0377126,-0.0156181l0.0154803 -0.0154803c0.0219764,-0.0219764 0.0193071,-0.0545315 0.00122047,-0.0741772 0.00917717,0.00875197 0.0216811,0.0143701 0.0364921,0.0143701 0.0141929,0 0.0276732,-0.00557874 0.0377126,-0.0156181l0.0754252 -0.0754252c0.0219764,-0.0219764 0.0193071,-0.0545315 0.00122047,-0.0741772 0.00917717,0.00875197 0.0216811,0.0143701 0.0364921,0.0143701 0.0141929,0 0.0276732,-0.00557874 0.0377126,-0.0156181l0.0754252 -0.0754252c0.0219764,-0.0219764 0.0193071,-0.0545315 0.00122047,-0.0741772 0.00917717,0.00875197 0.0216811,0.0143701 0.0364921,0.0143701 0.0141929,0 0.0276732,-0.00557874 0.0377126,-0.0156181l0.0754252 -0.0754252c0.0219764,-0.0219764 0.0193071,-0.0545315 0.00122047,-0.0741772 0.00917717,0.00875197 0.0216811,0.0143701 0.0364921,0.0143701 0.0141929,0 0.0276732,-0.00557874 0.0377126,-0.0156181l0.0754252 -0.0754252c0.0219685,-0.0219685 0.019311,-0.0545079 0.00124016,-0.0741575 0.00917323,0.00874016 0.0216693,0.0143504 0.0364685,0.0143504 0.0141929,0 0.0276732,-0.00557874 0.0377126,-0.0156181l0.0754213 -0.0754213c0.0219606,-0.0219606 0.019311,-0.0544843 0.00125984,-0.0741339 0.00917323,0.00872835 0.0216614,0.0143307 0.0364488,0.0143307 0.0141929,0 0.0276732,-0.00557874 0.0377126,-0.0156181l0.0754213 -0.0754213c0.0219606,-0.0219606 0.019311,-0.0544843 0.00125984,-0.0741339 0.00917323,0.00872835 0.0216614,0.0143307 0.0364488,0.0143307 0.0141929,0 0.0276732,-0.00557874 0.0377126,-0.0156181l0.0754213 -0.0754213z"/></g></g><rect class="fil1" width="6.82666" height="6.82666"/><text x="0" y="21.82666" fill="#000000" font-size="5px" font-weight="bold" font-family="'Helvetica Neue', Helvetica, Arial-Unicode, Arial, Sans-serif">Created by Graphic Nehar</text><text x="0" y="26.82666" fill="#000000" font-size="5px" font-weight="bold" font-family="'Helvetica Neue', Helvetica, Arial-Unicode, Arial, Sans-serif">from the Noun Project</text></svg>