<svg xmlns="http://www.w3.org/2000/svg" version="1.1" viewBox="0 0 41 51.25" x="0px" y="0px"><title>transfer</title><path d="M2.746 2.293c-0.205 0-0.359 0.153-0.359 0.359v16.443c0 0.205 0.153 0.359 0.359 0.359h16.443c0.205 0 0.357-0.152 0.357-0.359v-16.434c-0.003-0.212-0.164-0.368-0.357-0.368h-16.443zM27.716 2.295c-0.092 0-0.177 0.031-0.249 0.103l-2.846 2.846c-0.145 0.145-0.145 0.356 0 0.501l2.846 2.846c0.075 0.075 0.155 0.105 0.254 0.105s0.179-0.030 0.254-0.105c0.146-0.146 0.146-0.353 0-0.499l-2.24-2.244h6.161c3.342 0 6.070 2.732 6.070 6.072v3.361c0 0.205 0.153 0.359 0.359 0.359s0.359-0.153 0.359-0.359v-3.361c0-3.741-3.040-6.779-6.781-6.779h-6.161l2.235-2.24c0.126-0.129 0.132-0.358-0.009-0.501v-0.002h-0.002c-0.072-0.072-0.157-0.103-0.249-0.103zM3.102 3.004h15.734v15.734h-15.734v-15.734zM21.806 21.546c-0.199 0.003-0.359 0.165-0.359 0.359v16.443c0 0.207 0.151 0.359 0.357 0.359h16.443c0.205 0 0.359-0.153 0.359-0.359v-16.443c0-0.205-0.153-0.359-0.359-0.359h-16.441zM22.154 22.262h15.73v15.734h-15.73v-15.734zM2.675 25.36c-0.208 0-0.357 0.149-0.357 0.357v3.361c0 3.741 3.038 6.781 6.779 6.781h6.164l-2.242 2.242c-0.146 0.146-0.146 0.353 0 0.499 0.075 0.075 0.155 0.105 0.254 0.105s0.179-0.030 0.254-0.105l2.846-2.846c0.069-0.069 0.105-0.155 0.105-0.254s-0.036-0.185-0.105-0.254l-2.846-2.846c-0.146-0.146-0.353-0.146-0.499 0s-0.146 0.353 0 0.499l2.242 2.242h-6.164c-3.341 0-6.072-2.729-6.072-6.070v-3.354c0-0.205-0.152-0.357-0.359-0.357z"/><text x="0" y="56" fill="#000000" font-size="5px" font-weight="bold" font-family="'Helvetica Neue', Helvetica, Arial-Unicode, Arial, Sans-serif">Created by vectlab</text><text x="0" y="61" fill="#000000" font-size="5px" font-weight="bold" font-family="'Helvetica Neue', Helvetica, Arial-Unicode, Arial, Sans-serif">from the Noun Project</text></svg>