<svg xmlns="http://www.w3.org/2000/svg" xmlns:xlink="http://www.w3.org/1999/xlink" version="1.1" x="0px" y="0px" viewBox="0 0 60 75" enable-background="new 0 0 60 60" xml:space="preserve"><g><rect x="17.1350098" y="38.7080688" width="25.7299805" height="2.0908203"/><path d="M53.7750244,27.5599976l-3.7700195,4.5699463c-0.1799927,0.2199707-0.4500122,0.3601074-0.7399902,0.3699951   c-0.2700195-0.0098877-0.5700073-0.1099854-0.7600098-0.3199463l-5.6400146-6.0500488V36.710022H17.1350098V26.1299438   l-5.6400146,6.0500488c-0.1900024,0.2099609-0.4799805,0.3100586-0.7600098,0.3199463   c-0.289978-0.0098877-0.5599976-0.1500244-0.7399902-0.3699951l-3.7700195-4.5699463   c-0.2999878-0.3800049-0.2999878-0.9200439,0.0100098-1.2800293l11.0400391-13.0799561   c0.0699463-0.1201172,0.1499634-0.2199707,0.25-0.2900391c0.039978-0.0400391,0.1199951-0.0900879,0.1599731-0.1099854   c0.9199829-0.5100098,1.8699951-0.9500732,2.8400269-1.3299561c0.9299927,4.3299561,4.8199463,7.5899658,9.4799805,7.5899658   c4.6500244,0,8.539978-3.2600098,9.4699707-7.5899658c0.9900513,0.3999023,1.960022,0.8498535,2.8800049,1.3598633   c0.1600342,0.0900879,0.3000488,0.2301025,0.3900146,0.3901367l11.0200195,13.0599365   C54.0750122,26.6399536,54.0750122,27.1799927,53.7750244,27.5599976z"/><path d="M42.8649902,42.7999878v4.7299805c0,0.5499268-0.4500122,1-1,1H18.1350098c-0.5499878,0-1-0.4500732-1-1v-4.7299805   H42.8649902z"/></g><text x="0" y="75" fill="#000000" font-size="5px" font-weight="bold" font-family="'Helvetica Neue', Helvetica, Arial-Unicode, Arial, Sans-serif">Created by Graphic Tigers</text><text x="0" y="80" fill="#000000" font-size="5px" font-weight="bold" font-family="'Helvetica Neue', Helvetica, Arial-Unicode, Arial, Sans-serif">from the Noun Project</text></svg>